<?xml version="1.0" encoding="UTF-8" standalone="no"?>
<svg
   fill="none"
   height="512"
   viewBox="0 0 364.544 364.67236"
   width="512"
   version="1.1"
   id="svg471"
   sodipodi:docname="java2.svg"
   inkscape:export-filename="java3.svg"
   inkscape:export-xdpi="96"
   inkscape:export-ydpi="96"
   xmlns:inkscape="http://www.inkscape.org/namespaces/inkscape"
   xmlns:sodipodi="http://sodipodi.sourceforge.net/DTD/sodipodi-0.dtd"
   xmlns="http://www.w3.org/2000/svg"
   xmlns:svg="http://www.w3.org/2000/svg">
  <defs
     id="defs475" />
  <sodipodi:namedview
     id="namedview473"
     pagecolor="#ffffff"
     bordercolor="#111111"
     borderopacity="1"
     inkscape:showpageshadow="0"
     inkscape:pageopacity="0"
     inkscape:pagecheckerboard="1"
     inkscape:deskcolor="#d1d1d1"
     showgrid="false" />
  <path
     d="m 214.02242,5.3754151 v -0.00104 z m 0,0 c 9.26261,36.4804949 -15.62657,55.9692939 -39.95206,75.0168399 -12.12951,9.497869 -24.11905,18.886257 -31.66428,30.216835 -15.45064,23.19644 7.57949,48.12113 38.96005,76.43379 -2.77413,-6.27077 -7.05299,-12.36393 -11.38448,-18.53274 -14.77371,-21.03988 -30.1646,-42.9581 11.40663,-75.789049 66.92297,-52.831617 32.75615,-87.2232435 32.63414,-87.3456759 z"
     fill="#e76f00"
     id="path459"
     style="stroke-width:0.417856" />
  <path
     d="m 192.09124,198.64925 c 0,0 20.16991,-16.54835 4.19653,-34.93777 v -8.4e-4 c -54.14494,-62.38798 59.21896,-90.700647 59.21896,-90.700647 -69.12005,40.086177 -59.8683,52.936497 -43.69686,75.398347 0.72581,1.00828 1.46542,2.03538 2.21255,3.08545 18.62759,26.21879 -21.93118,47.15546 -21.93118,47.15546 z"
     fill="#e76f00"
     id="path461"
     style="stroke-width:0.417856" />
  <g
     fill="#5382a1"
     id="g469"
     transform="matrix(0.41785594,0,0,0.41785594,-189.66862,-26.800745)"
     style="fill:#36a0f2;fill-opacity:1">
    <path
       d="m 1075.1826,557.70156 c -1.9809,4.87793 -0.2535,10.40404 4.5325,14.54188 10.0316,8.66078 9.7622,10.47535 -1.9968,12.87628 -7.0681,1.4469 -9.7147,5.18221 -9.7147,13.73523 0,9.22021 2.0919,11.75268 9.7147,11.75268 5.3565,0 9.7305,1.66401 9.7305,3.70045 0,10.14571 59.112,22.69712 70.9027,15.05376 8.2567,-5.35178 9.0808,-19.33899 1.5056,-25.2597 -3.9778,-3.10458 -1.2045,-7.16476 10.4278,-15.2788 32.7255,-22.84134 2.9635,-42.22153 -39.762,-25.8952 -11.4738,4.38348 -14.3739,3.9556 -26.751,-3.95401 -17.2898,-11.03794 -24.4847,-11.36124 -28.5893,-1.27257 z"
       id="rightfly"
       style="display:inline;fill:#36a0f2;fill-opacity:1;stroke-width:1.58477"
       sodipodi:nodetypes="cccssscccccc" />
    <path
       d="m 670.7731,612.20351 c -3.35669,1.66412 -8.62838,8.22698 -11.72249,14.58077 l -5.62626,11.55692 -10.23398,-8.58323 c -11.3997,-9.55661 -28.62134,-14.03387 -46.24103,-12.01852 -18.79211,2.14915 -17.39558,10.45976 4.6445,27.67304 15.60435,12.18744 20.25387,18.75365 19.09985,26.96056 -3.13759,22.23577 35.82142,24.13572 62.0695,3.02554 18.28869,-14.70789 22.89139,-30.2654 8.95117,-30.2654 -5.8972,0 -7.15492,-2.0003 -4.40869,-7.01611 13.02202,-23.78115 4.87699,-36.54895 -16.53257,-25.91357 z"
       id="topbottomfly"
       style="display:inline;fill:#36a0f2;fill-opacity:1;stroke-width:1.67249"
       sodipodi:nodetypes="ccccccccscc" />
    <path
       d="m 736.71249,481.77502 c -5.26335,6.65034 -9.5696,15.53543 -9.5696,19.74731 0,9.13673 -7.65837,9.85418 -19.0673,1.7869 -11.80435,-8.34288 -42.18022,-8.61997 -44.3266,-0.40141 -1.05747,4.05311 3.37909,8.53011 12.45291,12.56524 12.44841,5.53596 13.77099,7.63591 11.31306,17.97539 -3.35213,14.09902 2.96869,21.0609 22.10489,24.34114 15.58336,2.67511 35.90883,-3.84791 35.90883,-11.52426 0,-2.62718 3.72359,-4.77806 8.27548,-4.77806 17.25044,0 27.79063,-22.81186 12.63564,-27.35326 -5.42811,-1.62963 -4.36166,-5.28133 5.74566,-19.66643 10.69146,-15.2119 11.45535,-18.15213 5.52097,-21.17174 -14.71462,-7.47415 -31.0424,-4.09955 -40.99394,8.47918 z"
       id="topleftfly"
       style="display:inline;fill:#36a0f2;fill-opacity:1;stroke-width:1.49782"
       sodipodi:nodetypes="csccsccsscccc" />
    <path
       id="top"
       style="display:inline;fill:#36a0f2;fill-opacity:1"
       d="m 930.97266,545.80078 c -5.67924,-0.0688 -11.12859,4.12359 -12.36872,9.69456 -1.00727,3.63472 -0.33256,7.43312 0.381,11.05172 0.11794,2.74228 -1.54006,5.15452 -3.14275,7.23304 -4.49634,5.5072 -10.64343,9.3737 -16.9549,12.48648 -9.81481,4.71172 -20.66555,7.31665 -31.5632,7.36465 -19.34664,0.14368 -38.74269,3.32911 -56.90512,10.07514 -14.14109,5.28576 -27.63134,12.67269 -38.99643,22.67879 -8.61619,7.63991 -16.11511,16.85839 -20.40321,27.63435 -2.99756,7.49118 -4.26722,15.76894 -2.94706,23.77151 1.05806,6.91417 4.06322,13.464 8.41211,18.92382 6.29758,7.96278 15.06108,13.61693 24.31398,17.57729 7.75273,3.34017 15.96425,5.42624 24.18951,7.22577 12.69827,2.92061 25.42452,6.06465 38.15565,8.98991 28.43951,6.16701 57.58326,8.80791 86.66389,8.70323 20.15049,-0.12062 40.34472,-1.60767 60.15634,-5.38863 11.00785,-2.15079 21.94945,-5.05879 32.16615,-9.75786 6.358,-2.97927 12.4878,-6.8349 17.0281,-12.27165 3.6607,-4.43652 5.9878,-10.11727 5.7905,-15.92258 -0.01,-4.22136 -0.1279,-8.55892 -1.5813,-12.56954 -1.4488,-3.85413 -4.5916,-7.17594 -8.6289,-8.27407 -4.1099,-1.21137 -8.5343,-0.15105 -12.2363,1.80532 -4.5184,2.21679 -8.3224,5.70327 -13.0547,7.51172 -5.1803,2.07056 -10.6165,3.42371 -16.07816,4.51367 -0.44253,0.0816 -1.24416,0.24076 -1.82421,0.35206 -10.34191,1.95082 -20.83686,2.94395 -31.33009,3.63232 -0.54938,0.0272 -1.43918,0.0824 -2.11914,0.11914 -15.72489,0.87821 -31.49166,0.84595 -47.22461,0.19531 -1.02992,-0.0518 -2.33083,-0.11002 -3.46489,-0.1643 -16.45163,-0.79474 -32.91027,-2.33918 -49.22263,-4.85145 -10.98469,-1.72031 -21.91927,-3.91688 -32.57681,-7.11167 -3.36906,-1.03107 -6.70749,-2.17373 -9.95246,-3.55031 -0.26731,-0.11521 -0.95984,-0.4085 -1.39801,-0.6107 -1.02007,-0.45828 -2.02774,-0.94363 -3.02387,-1.4518 -0.25582,-0.13593 -1.01142,-0.51408 -1.44455,-0.77961 -3.52856,-2.07062 -6.95346,-4.66792 -9.00076,-8.28485 -0.79177,-1.5226 -0.85869,-3.40215 0.007,-4.91048 1.68141,-3.44396 4.80623,-5.87713 7.8639,-8.04712 6.65461,-4.56463 14.2772,-7.47014 21.94194,-9.84808 11.11154,-3.38776 22.63822,-5.14242 34.16148,-6.40576 16.91945,-2.0723 33.88174,-4.31932 50.40504,-8.61668 8.59957,-2.28838 17.00896,-5.42025 24.77321,-9.79883 1.0197,-0.53261 2.03163,-1.08159 3.07054,-1.57617 0.55484,2.05954 1.21224,4.14068 1.03797,6.30331 -0.19265,4.39666 -1.67887,8.60084 -3.33061,12.63632 -1.54314,3.90814 -3.02927,8.01455 -2.86752,12.27716 0.30277,4.69085 3.66617,9.1753 8.31893,10.28325 4.11254,1.13217 8.45812,-0.38189 11.86159,-2.71924 4.49418,-2.93176 8.6751,-6.33399 12.60034,-9.98668 8.40442,-8.13949 14.16398,-19.13461 15.40085,-30.82245 1.34397,-11.95891 -1.82198,-24.18037 -7.98837,-34.43719 -6.50051,-10.96807 -16.1072,-19.84641 -26.87855,-26.54356 -4.98308,-3.1798 -10.12933,-6.35315 -15.90463,-7.85225 -1.40389,-0.32861 -2.84478,-0.50273 -4.28711,-0.48633 z" />
    <path
       id="path465"
       style="fill:#36a0f2;fill-opacity:1"
       d="m 739.78516,689.44336 c -5.91735,0.17501 -11.49885,2.4363 -16.88282,4.69922 -10.08247,4.53178 -18.5645,12.39972 -24.04511,21.9808 -10.25392,17.64468 -11.01053,40.52132 -1.59453,58.67482 5.16209,9.97593 13.46086,18.3839 23.61365,23.26807 10.50674,5.33066 21.87276,8.67019 33.23265,11.63467 18.71336,4.77675 37.79283,7.95491 56.91386,10.57934 33.21627,4.48603 66.68685,6.94512 100.18195,7.97271 29.74411,0.86798 59.54839,0.52161 89.22319,-1.78607 14.0319,-1.10675 28.0227,-2.78302 41.8929,-5.18946 3.8169,-0.61583 7.6801,-0.83655 11.5307,-1.1134 8.2265,-0.97452 15.7231,-5.29947 21.7125,-10.87319 7.303,-6.78275 12.89,-15.67342 14.8421,-25.52018 0.9299,-4.97832 0.4938,-10.06047 0.5879,-15.091 0,-8.18555 0,-16.3711 0,-24.55664 -9.8431,6.88562 -19.5988,13.8968 -29.4844,20.72098 -5.1145,3.06753 -10.8457,4.8996 -16.5391,6.56212 -6.9371,1.93561 -13.9932,3.42069 -21.0878,4.64854 -0.7307,0.12434 -1.8791,0.31893 -2.6222,0.43958 -6.1958,1.01096 -12.3014,1.81616 -18.5247,2.55988 -3.90151,0.45499 -7.78452,0.8448 -11.63629,1.20952 -4.09133,0.38168 -8.18813,0.69854 -12.28516,1.01172 -0.74511,0.0462 -1.79623,0.11967 -2.65882,0.17635 -20.55872,1.40686 -41.39447,1.87634 -62.11419,1.66988 -5.57695,-0.0588 -11.28728,-0.18251 -16.77777,-0.33451 -5.59785,-0.17736 -11.18739,-0.40303 -16.73664,-0.68182 -8.27739,-0.41962 -16.45499,-0.95038 -24.68801,-1.63729 -14.23398,-1.19036 -28.61311,-2.83909 -42.78349,-5.14288 -6.3426,-1.04134 -12.80876,-2.28412 -18.99108,-3.6552 -7.85891,-1.79206 -15.68062,-3.86027 -23.22162,-6.7293 -5.9257,-2.32371 -11.53784,-5.48935 -16.48736,-9.50117 -0.22922,-0.19644 -0.87943,-0.72375 -1.25837,-1.05869 -5.9309,-5.13814 -10.92675,-11.64849 -13.27171,-19.2121 -1.59367,-5.0959 -1.74691,-10.78618 0.41012,-15.74559 1.47258,-3.57003 4.14811,-6.4579 7.03402,-8.95041 3.0208,-2.82045 5.17178,-6.94198 4.61554,-11.16185 -0.53448,-5.24207 -5.31884,-9.48629 -10.51196,-9.79008 -0.52766,-0.052 -1.05781,-0.0788 -1.58795,-0.0774 z" />
    <path
       id="path467"
       style="fill:#36a0f2;fill-opacity:1"
       d="m 657.22852,766.09961 c -2.36157,0.68791 -4.79219,1.37124 -6.78321,2.88281 -5.94176,4.82636 -11.73443,9.84296 -17.34876,15.04736 -10.64205,10.47184 -17.47765,24.35532 -20.86274,38.7939 -3.25079,13.94167 -3.47157,28.75398 0.48456,42.57705 2.75809,9.49917 7.80891,18.56377 15.46416,24.96958 5.23177,4.32713 11.50152,7.09503 17.63371,9.87915 10.96263,4.80581 22.24863,8.83538 33.6109,12.58229 11.87552,3.88872 23.95314,7.16434 36.18057,9.74224 8.39334,1.8906 16.85253,3.50419 25.38955,4.59292 15.65604,2.08574 31.41688,3.26304 47.17648,4.22999 33.3541,1.98844 66.77347,2.61686 100.18171,2.79237 41.51374,0.16774 83.03155,-0.55 124.51545,-2.11676 24.3577,-0.95513 48.7334,-2.19854 72.9439,-5.13839 13.1524,-1.66279 26.3071,-3.88234 38.945,-7.9766 9.9901,-3.28825 19.7021,-8.08033 27.3613,-15.41064 4.2206,-4.04449 7.9218,-8.7057 10.5317,-13.9527 2.786,-5.95403 4.5587,-12.32659 5.9717,-18.72885 0.6728,-3.4246 1.226,-7.0326 0.3345,-10.46885 -1.1176,-3.93861 -4.5348,-7.21804 -8.6445,-7.7871 -3.1243,-0.53874 -6.1303,0.77844 -8.9368,1.97768 -7.8597,3.26803 -15.5486,6.993 -23.6832,9.55762 -16.1517,5.41129 -32.7834,9.24688 -49.4818,12.53622 -4.5024,0.93758 -9.0662,1.54329 -13.6529,1.86719 -4.5293,0.37933 -9.181,0.63619 -13.5989,0.8816 -6.982,0.34986 -14.0722,0.59411 -20.9941,0.81445 -31.14027,0.90057 -62.29916,1.0106 -93.44946,0.71106 -14.01433,-0.14843 -28.12176,-0.42442 -42.07203,-0.83215 -11.93187,-0.35809 -23.85505,-0.94043 -35.77402,-1.59234 -10.46072,-0.50306 -20.83535,-0.98809 -31.29968,-1.59953 -8.46924,-0.48551 -16.94882,-1.00997 -25.44193,-1.62089 -12.1939,-0.88796 -24.55213,-1.94002 -36.65038,-3.32006 -4.75097,-0.55009 -9.5032,-1.15469 -14.18467,-1.83065 -13.79988,-1.99205 -27.54087,-4.68091 -40.83682,-8.93302 -0.33324,-0.11566 -1.13999,-0.37704 -1.65462,-0.54852 -2.54243,-0.83287 -5.11591,-1.77693 -7.53606,-2.6926 -0.78702,-0.29399 -1.29329,-0.49267 -2.06493,-0.79942 -0.91664,-0.35825 -1.59874,-0.63227 -2.52307,-1.01437 -5.58398,-2.31116 -11.07426,-4.85277 -16.46586,-7.58046 -1.71767,-0.94814 -3.14339,-2.33665 -4.69882,-3.52088 -5.88982,-4.86623 -11.49413,-10.3402 -15.20844,-17.08994 -2.7712,-5.11264 -3.91419,-11.07356 -3.22511,-16.84889 0.40687,-4.12436 1.51045,-8.14792 2.88863,-12.04554 0.12229,-0.3391 0.37861,-1.06478 0.5659,-1.55374 2.24119,-5.89002 4.98799,-11.60489 6.70446,-17.68394 0.56438,-2.18801 0.52561,-4.52429 -0.23911,-6.65881 -0.40633,-1.2431 -0.98221,-2.4989 -1.85977,-3.46055 -2.05413,-1.36957 -4.10674,-2.74143 -6.16171,-4.10976 -0.51693,0.16016 -1.03386,0.32031 -1.55078,0.48047 z" />
  </g>
</svg>
